<?xml version="1.0" encoding="UTF-8"?>
<svg id="Camada_2" data-name="Camada 2" xmlns="http://www.w3.org/2000/svg" viewBox="0 0 485.68 571.84">
  <defs>
    <style>
      .cls-1 {
        fill: #040404;
      }
    </style>
  </defs>
  <g id="Camada_1-2" data-name="Camada 1">
    <g>
      <path class="cls-1" d="M477.7,0c-.35,1.16,.56,1.76,1.24,2.21,8.01,5.27,7.82,11.53,4.83,20.25-14.85,43.33-28.82,86.95-43.23,130.43-1.01,3.04-1,5.53,.36,8.46,13.51,29.08,20.18,59.68,20.12,91.75-.04,20.65,0,41.31-.02,61.96,0,2.44,.23,4.61,1.73,6.8,4.87,7.12,6.77,15.21,6.78,23.75,.03,24.56,.18,49.13-.04,73.69-.22,25.48-18.01,43.11-43.48,42.79-6.12-.08-7.09,1.85-6.97,7.36,.33,15.77,.81,31.56-4.72,46.86-11.84,32.75-42.72,55.06-77.53,55.39-15.81,.15-31.63-.1-47.45,.13-3.77,.05-4.6-1.12-4.58-4.68,.06-12.18-.08-11.99,12.06-12.22,16.72-.32,33.51,1.35,50.15-1.08,12.33-1.8,23.15-7.06,33.39-16.34-3.75,0-6.25,0-8.74,0-49.3,.15-98.61,.38-147.91,.34-4.84,0-6.32,1.02-6.13,6.05,.42,11.07,.12,11.08,10.93,11.08,11.72,0,23.45,.09,35.17-.06,3.07-.04,4.54,.25,4.53,4.06-.02,12.76,.17,12.76-12.52,12.76-16.75,0-33.49-.11-50.24,.09-3.65,.04-4.64-.94-4.61-4.6,.18-20.28,.02-40.57,.12-60.85,.06-11.54,7.29-18.98,18.75-19.1,15.44-.17,30.89-.16,46.33,0,11.62,.12,18.56,7.29,18.76,18.96,.02,1.3,0,2.61,0,3.91,0,10.93,0,10.9,10.68,10.85,31.26-.13,62.51-.31,93.77-.25,3.8,0,5.54-1.26,7.06-4.6,4.98-10.95,6.27-22.45,6.08-34.28-.04-2.19-.71-2.9-2.87-2.84-4.83,.12-9.68,.12-14.51-.01-17.34-.48-30.96-13.21-32.74-30.51-.13-1.29-.27-2.6-.27-3.9-.01-44.1-.17-88.2,.06-132.3,.11-20.67,14.34-34.26,35.01-34.51,4.95-.06,11.71,2.25,14.36-1.05,2.5-3.11,.77-9.6,.93-14.6,1.05-33.71-6.23-65.27-24.31-94.02-6.86-10.91-14.97-20.8-24.11-29.9-2.2-2.19-3.5-2.34-5.71,0-5.76,6.08-11.88,11.81-17.65,17.87-2.17,2.28-3.42,2.74-6.18,.43-46.84-39.24-115.5-39.47-162.11-.47-3.35,2.8-4.88,2.26-7.49-.55-5.45-5.85-11.34-11.29-16.87-17.07-2.03-2.12-3.26-2.68-5.68-.28-27.57,27.31-43.64,60.1-47.72,98.76-1.29,12.26-.57,24.54-.98,36.8-.12,3.69,1.28,4.2,4.5,4.23,7.03,.06,14.13-.9,21.09,1.02,14.46,4,24.64,16.45,24.7,31.38,.16,45.4,.2,90.81-.02,136.21-.08,17.32-14.11,31.63-31.37,32.37-10.77,.46-21.58,.04-32.37,.22-2.9,.05-3.33-1.12-3.28-3.6,.08-4.24,1.32-9.57-.74-12.4-1.96-2.69-7.63-.57-11.65-.96-21.14-2.04-37.56-19.41-37.76-40.65-.25-26.05-.1-52.1-.03-78.15,.02-7.4,2.08-14.34,6.11-20.55,1.71-2.64,2.35-5.26,2.35-8.35,0-23.63-.2-47.27,.29-70.89,.59-28.42,7.49-55.49,19.35-81.25,1.88-4.09,1.93-7.49,.57-11.59C30.46,106.21,15.83,61.64,.96,17.14-.58,12.55-.63,9.24,3.53,6.08c2.04-1.56,4.6-3.1,5.21-6.08h3.35c.28,1.52,1.69,1.19,2.63,1.49,48.03,15.9,96.07,31.73,144.07,47.7,2.75,.92,5,.44,7.43-.46,50.99-18.91,102.04-18.82,153.06-.26,3.58,1.3,6.57,1.38,10.06,.22,43.44-14.42,86.92-28.7,130.34-43.16,4.95-1.65,10.31-2.31,14.68-5.54h3.35Zm-65.31,74.11c-10.22,3.17-20.45,6.35-31.49,9.77,8.4,6.87,15.52,13.91,22.95,21.53,3.09-10.76,7.01-20.36,9.22-30.49l.65-.65c-.44-.06-.89-.12-1.33-.18Zm31.81,231.93c0-19.54,.11-38.5-.04-57.47-.13-15.87-2.39-31.48-6.49-46.82C401.92,67.86,247.16,8.58,131.78,85.27c-51.4,34.17-80.97,82.91-88.49,144.39-3.06,24.98-1.17,50.16-1.27,75.26,0,.24,.42,.49,.75,.85,6.47-2.45,13.27-3.34,20.17-2.89,3.22,.21,4.03-.91,3.98-4.02-.18-10.79,.05-21.58-.1-32.37-.23-16.59,.21-33.12,3.64-49.41,22.66-107.72,136.09-169.37,237.96-127.54,67.32,27.64,103.8,79.9,110.18,152.56,1.63,18.54,.49,37.2,.49,55.8,0,3.71,.64,5.34,4.76,5.01,6.72-.54,13.31,.61,20.35,3.15ZM117.14,378.54c0-22.13,.06-44.27-.02-66.4-.04-10.63-6.8-17.33-17.4-17.51-3.9-.07-7.84,.27-11.71-.09-3.95-.38-4.48,1.37-4.44,4.75,.16,14.13,.07,28.27,.07,42.41,0,12.42,0,12.28-12.51,12.26-3.43,0-4.46-.86-4.36-4.34,.25-8.74,.11-17.48,.06-26.22,0-1.71,.61-3.48-2.43-3.89-17.42-2.37-31.01,9.09-31.05,26.56-.05,23.62-.02,47.25-.01,70.87,0,19.13,9.76,28.62,28.91,28.7,4.16,.02,4.72-1.4,4.69-5.05-.18-19.34-.08-38.69-.08-58.03,0-12.19,0-12.01,12.01-12.2,3.92-.06,4.9,.99,4.87,4.88-.19,24.18-.11,48.36-.08,72.54,0,4.62-1.56,10.79,.78,13.45,2.75,3.13,9.07,.95,13.83,.99,12.25,.1,18.86-6.61,18.88-18.93,.03-21.58,0-43.15,0-64.73Zm285.25,.06v-71.41c0-12.6-.03-12.06-12.71-12.74-14.11-.76-21.2,8.15-21.06,21.02,.44,42.03,.16,84.06,.17,126.09,0,1.67-.03,3.36,.13,5.02,.88,9.02,7.51,15.33,16.55,15.67,3.71,.14,7.47-.28,11.15,.11,4.52,.48,5.95-.82,5.9-5.64-.26-26.03-.13-52.07-.13-78.11Zm16.79,3.83c0,19.52-.02,39.04,.04,58.56,0,1.93-1.09,4.29,2.8,4.62,18.63,1.57,30.68-9.23,30.71-28.01,.04-23.24,.03-46.48,0-69.72-.02-18.68-9.99-28.39-28.67-28.4-3.88,0-5.01,1.03-4.97,4.94,.19,19.33,.09,38.67,.09,58.01Zm20.6-334.76c-7.53,23.64-14.75,46.24-21.89,68.86-.53,1.66-1.87,3.41-.57,5.27,3.46,4.96,6.99,9.87,10.81,15.27,12.79-38.82,25.33-76.9,38.19-115.96-40.57,13.37-79.85,26.32-119.88,39.51,4.12,2.44,7.85,3.96,10.69,6.49,5,4.46,10.02,4.16,15.75,1.98,6.05-2.3,12.3-4.11,18.48-6.07,15.84-5.04,31.69-10.05,48.41-15.34ZM20.07,21.02c12.94,39.24,25.44,77.18,38.14,115.7,3.68-5.2,6.91-9.93,10.33-14.52,1.53-2.05,.6-3.88,0-5.77-2.22-7.08-4.5-14.13-6.75-21.2-4.95-15.59-9.9-31.19-15.06-47.45,1.69,.48,2.55,.71,3.39,.97,22.43,7.13,44.85,14.29,67.3,21.37,1.98,.62,3.87,1.92,6.28,.29,4.99-3.38,10.23-6.4,15.97-9.94C99.82,47.33,60.61,34.39,20.07,21.02ZM338.67,125.51c-60.44-46.21-143.07-39.09-190.03-.39,.2,.31,.36,.65,.61,.91,2.35,2.38,4.93,4.58,7.03,7.16,2.45,3.02,4.27,3.13,7.71,.87,34.57-22.62,72.15-29.22,112.39-20.07,16.61,3.78,31.94,10.74,46.15,20.18,1.46,.97,2.72,3.34,5.15,.99,3.46-3.33,7.21-6.37,10.98-9.66Zm-95.63,378.47c-4.27,0-8.54,0-12.81,0-12.79,0-12.61,0-12.62,12.79,0,3.87,1.35,4.58,4.81,4.52,10.95-.19,21.9-.07,32.85-.07,13.53,0,13.42,0,12.86-13.62-.12-3.02-1.15-3.73-3.93-3.67-7.05,.16-14.11,.05-21.16,.05ZM82.57,105.18c7.3-7.74,14.48-14.52,22.59-21.37-11.22-3.55-21.65-6.85-32.68-10.34,3.46,10.88,6.64,20.87,10.1,31.71Z"/>
      <path class="cls-1" d="M303.12,407.59c4.62,2.88,8.92,5.43,13.05,8.24,1.26,.86-.12,2.03-.63,2.86-10.14,16.59-20.35,33.15-30.47,49.75-1.12,1.84-2.2,2.36-3.91,.91-.14-.12-.31-.21-.47-.3q-11.77-6.49-4.77-17.89c8.24-13.41,16.47-26.83,24.73-40.23,.72-1.16,1.62-2.21,2.47-3.34Z"/>
      <path class="cls-1" d="M182.04,408.61c1.55,.06,1.9,1.22,2.47,2.14,10.09,16.42,20.14,32.85,30.29,49.23,1.22,1.98,1.15,2.94-.86,4.36-11.33,8-11.3,8.07-18.55-3.77-8.04-13.11-15.89-26.33-24.2-39.27-2.46-3.83-1.78-5.48,1.97-7.29,3.15-1.52,6.02-3.63,8.89-5.4Z"/>
      <path class="cls-1" d="M251.27,426.52c0,9.27-.12,18.55,.07,27.82,.06,3.15-.86,4.04-4.04,4.1-12.83,.23-12.83,.35-12.83-12.51,0-15.21,.11-30.42-.08-45.63-.04-3.6,.44-5.18,4.66-5.12,12.21,.17,12.22-.05,12.22,12.42,0,6.31,0,12.61,0,18.92Z"/>
    </g>
  </g>
</svg>