<?xml version="1.0" encoding="UTF-8"?>
<svg id="Camada_2" data-name="Camada 2" xmlns="http://www.w3.org/2000/svg" viewBox="0 0 446.54 609.26">
  <defs>
    <style>
      .cls-1 {
        fill: #050505;
      }
    </style>
  </defs>
  <g id="Camada_1-2" data-name="Camada 1">
    <path class="cls-1" d="M244.73,0c4.51,3.37,5.54,7.95,5.47,13.39-.22,17.85,.03,35.71-.18,53.56-.04,3.72,.99,4.73,4.62,4.54,5.94-.31,11.92-.37,17.84,.02,3.9,.25,4.59-1.19,4.45-4.68-.27-6.93,0-13.88-.1-20.83-.06-4.39,1.43-7.74,5.6-9.56,4-1.74,7.28-.34,10.27,2.42,38.04,35.12,76.07,70.25,114.17,105.29,3.47,3.19,3.97,7.02,3.97,11.3-.04,43.84,.04,87.69-.12,131.53-.02,4.54,1.28,7.75,4.54,10.87,9.17,8.78,17.98,17.93,27.03,26.83,2.69,2.65,4.27,5.58,4.24,9.42-.12,19.84,.02,39.68-.3,59.51-.34,21.1-6.33,40.7-17.98,58.25-19.94,30.02-37.68,61.7-60.84,89.33-41.78,49.85-96.02,72.9-161.01,67.21-59.99-5.25-106.41-34.67-140.16-84.22-15.5-22.75-30.44-45.88-45.76-68.75C6.6,434.74,0,411.97,.05,387.09,.14,333.72,.13,280.36,0,226.99c-.01-5.38,1.66-9.37,5.55-13.09,9.18-8.77,17.96-17.95,27.04-26.82,2.31-2.25,3.35-4.55,3.27-7.81-.2-8.53,0-17.06-.09-25.59-.04-4.03,1.39-7.14,4.4-9.91,37.66-34.66,75.26-69.38,112.84-104.12,3.23-2.99,6.57-5.2,11.16-3.21,4.76,2.06,5.73,6.04,5.62,10.75-.15,6.54,.16,13.1-.12,19.64-.15,3.49,.55,4.93,4.45,4.68,5.93-.38,11.91-.33,17.84-.02,3.64,.19,4.66-.83,4.62-4.54-.21-17.85,.05-35.71-.18-53.56-.07-5.43,.94-10.03,5.47-13.39h5.95c5.19,2.42,6.63,6.67,6.57,12.14-.18,15.47-.06,30.94-.06,46.41,0,13.03,0,12.83,12.84,13.01,4.23,.06,5.25-1.17,5.2-5.28-.22-18.05,.01-36.1-.16-54.15-.05-5.47,1.36-9.71,6.57-12.13h5.95Zm-92.86,65.08c-28.77,26.56-56.56,52.24-84.39,77.89q-14.26,13.14-13.78,32.22c.01,.4,.03,.8,0,1.19-.19,2.05,.64,2.92,2.7,3.76,24.47,9.87,33.01,22.64,33.01,48.95,0,31.14,0,62.28,0,93.42,0,2.97-.08,5.48,3.1,7.58,30.91,20.39,61.7,40.96,92.45,61.59,2.44,1.64,4.27,1.8,6.9,.4,8.03-4.26,16.37-7.95,24.33-12.34,5.08-2.8,9.54-2.6,14.52,.08,8,4.31,16.28,8.1,24.32,12.32,2.38,1.25,4.1,1.27,6.38-.25,30.76-20.6,61.57-41.15,92.44-61.58,2.71-1.79,3.45-3.83,3.4-6.87-.15-10.51-.09-21.02-.05-31.54,.08-24.2-.34-48.41,.48-72.58,.54-15.81,8.58-29.06,23.07-34.78,11.58-4.57,13.8-11.11,12.16-21.5-.03-.19-.03-.4,0-.59,.77-4.74-1.11-8.05-4.69-11.28-17.07-15.43-33.88-31.14-50.79-46.74-13.93-12.85-27.88-25.69-42.7-39.35v7.35c0,52.56-.03,105.13,.03,157.69,0,6.99-.77,13.83-2.52,20.58-8.62,33.19-42.31,56.51-75.98,52.6-35.97-4.17-63.97-34.11-64.37-68.82-.08-6.93,3.1-11.03,8.66-11.18,5.6-.15,8.78,3.68,9.26,10.68,1.53,22.4,12.55,38.35,33.04,47.5,11.4,5.09,11.5,4.89,11.5-7.64,0-.99-.13-2,.02-2.97,.49-3.14-1.06-4.33-3.86-5.51-15.05-6.35-22.77-17.89-22.9-34.23-.14-17.06-.09-34.12-.01-51.17,.08-16.59,7.75-28.33,23.11-34.66,2.95-1.22,3.72-2.72,3.69-5.67-.13-15.27-.18-30.55,.03-45.82,.05-3.64-.87-4.68-4.57-4.59-11.5,.26-23.02,.36-34.51-.03-4.78-.16-5.75,1.31-5.72,5.84,.2,33.12,.12,66.25,.09,99.37,0,6.93-3.4,10.92-9,10.88-5.55-.04-8.83-4.06-8.85-11.02-.04-14.28-.01-28.56-.01-42.84,0-28.33,0-56.67,0-86.31Zm-62.06,284.59c-.2,1.58-.38,2.33-.38,3.09-.01,56.53,0,113.06-.07,169.6,0,2.81,1.01,4.83,2.74,6.89,27.84,33.23,62.86,54.17,105.93,60.14,62.65,8.69,114.47-12.05,155.97-59.43,2.38-2.72,3.27-5.51,3.27-9.11-.1-55.14-.06-110.29-.1-165.43,0-1.65,.64-3.48-.92-5.3-1.64,1.09-3.25,2.16-4.86,3.23-27.85,18.56-55.77,37.01-83.48,55.78-5.74,3.89-10.66,4.76-16.89,1.12-7.49-4.38-15.67-7.58-23.24-11.83-3.47-1.95-6-1.53-9.22,.19-7.84,4.18-16,7.8-23.78,12.08-5.59,3.07-10.11,2.38-15.33-1.15-29.5-19.94-59.2-39.59-89.62-59.86Zm187.02-185.24h.03c0-23.19-.16-46.39,.13-69.58,.06-4.85-1.43-5.79-5.89-5.67-11.09,.31-22.2,.27-33.3,.01-4.09-.09-5.82,.47-5.69,5.3,.39,14.86,.25,29.73,.06,44.6-.04,3.48,1.02,4.98,4.34,6.41,14.5,6.22,22.2,17.5,22.44,33.32,.27,17.84,.26,35.68,0,53.52-.21,13.76-6.21,24.97-18.7,30.76-7.18,3.33-9.09,7.42-8.01,14.32,.15,.97,.13,1.99,0,2.97-.57,4.23,1.28,4.42,4.82,3.49,22.73-6.01,39.41-26.76,39.71-50.46,.29-22.99,.06-45.99,.06-68.98ZM71.58,494.9v-2.86c0-88.4,0-176.8-.02-265.2,0-2.37-.13-4.76-.41-7.11-.94-7.95-4.88-14.1-11.44-18.59-1.59-1.08-3.37-3.08-5.19-2.15-1.98,1.01-.85,3.61-.85,5.47-.05,70.36-.07,140.73-.01,211.09,0,7.33,.11,14.69,.76,21.98,1.81,20.21,7.05,39.51,17.16,57.38Zm303.45,.05c12.76-23.49,17.94-48.59,17.95-74.85,.01-72.15,.01-144.3-.04-216.44,0-1.65,1.04-4.02-.98-4.81-1.64-.64-3.26,1.05-4.73,2.02-9.41,6.21-12.26,15.35-12.25,26.12,.08,88,.05,176.01,.05,264.01v3.95ZM205.46,205.44c0,8.51-.06,17.03,.01,25.54,.1,10.96,7.63,18.95,17.78,18.98,10.16,.03,17.82-7.94,17.87-18.88,.09-17.23,.1-34.45,0-51.68-.07-10.84-7.92-18.82-18.07-18.68-9.92,.14-17.45,8.02-17.57,18.58-.1,8.71-.02,17.42-.02,26.14Zm206.75,113.7c-.49,.37-.97,.73-1.46,1.1,0,32.67,.06,65.34-.05,98.01-.02,7.51-.54,15.03-1.04,22.53-.1,1.46-1.62,3.37,.06,4.19,2.24,1.1,2.91-1.49,3.75-2.86,8.36-13.49,13.69-28.06,14.68-43.98,1.22-19.59,.29-39.22,.54-58.83,.02-1.63-.22-3.06-1.45-4.34-5.05-5.23-10.03-10.54-15.04-15.82Zm-377.72,.12c-4.21,4.42-8.27,8.99-12.67,13.2-2.77,2.64-4.05,5.35-3.99,9.3,.24,15.27,.14,30.55,.09,45.82-.08,21.31,5.6,40.83,18.67,59.7-1.35-43.26-.39-85.14-2.1-128.01Zm-16.57-9.79c.43,.32,.85,.64,1.28,.97,4.5-4.65,8.89-9.44,13.57-13.91,2.36-2.26,3.19-4.63,3.18-7.85-.12-23.21-.06-46.42-.06-69.63,0-2.88,0-5.76,0-8.63-.51-.28-1.01-.56-1.52-.84-4.98,5.3-9.92,10.64-14.97,15.87-1.43,1.48-1.47,3.14-1.47,4.93,0,26.37,0,52.73,0,79.1Z"/>
  </g>
</svg>