<?xml version="1.0" encoding="UTF-8"?>
<svg id="Camada_2" data-name="Camada 2" xmlns="http://www.w3.org/2000/svg" viewBox="0 0 35.94 79.13">
  <defs>
    <style>
      .cls-1 {
        fill: #fcb11e;
      }

      .cls-2 {
        fill: #fcb11e;
      }
    </style>
  </defs>
  <g id="Camada_1-2" data-name="Camada 1">
    <g>
      <path class="cls-2" d="M.04,27.86c.12-3.38-.25-7.67,.16-11.93C1.03,7.31,8.38,.44,17.14,.02c8.7-.41,16.6,5.66,18.37,14.11,.29,1.37,.43,2.76,.43,4.17,0,6.96,.01,13.91,0,20.87-.02,9.04-6.57,16.72-15.25,17.92-9.24,1.27-17.53-4.18-20.03-13.16-.42-1.51-.6-3.06-.61-4.62-.01-3.52,0-7.04,0-11.45Zm2.55,.68s.02,0,.02,0c0,3.92-.11,7.84,.02,11.75,.31,8.96,9.01,15.88,17.83,14.28,7.66-1.39,12.84-7.5,12.9-15.31,.05-7.08,.01-14.15,0-21.23,0-.72,0-1.45-.1-2.15-1.19-8.18-8.24-13.84-16.52-13.28-7.86,.53-14.06,7.2-14.15,15.27-.04,3.56,0,7.12,0,10.68Z"/>
      <path class="cls-2" d="M18.03,79.13c-.43,.02-.76-.22-1.07-.47-3.76-3.04-7.52-6.08-11.28-9.12-.64-.52-.93-1.16-.38-1.87,.59-.76,1.29-.63,1.99-.07,3.23,2.62,6.49,5.19,9.67,7.87,.84,.7,1.34,.6,2.1-.03,2.95-2.45,5.95-4.85,8.93-7.26,.28-.23,.56-.45,.85-.67,.63-.48,1.28-.53,1.81,.1,.56,.68,.38,1.34-.28,1.88-1.58,1.29-3.17,2.56-4.75,3.85-2.14,1.73-4.29,3.47-6.43,5.2-.34,.27-.67,.59-1.15,.59Z"/>
      <path class="cls-1" d="M15.54,16.31c0-1-.04-2,0-2.99,.06-1.42,1.12-2.45,2.44-2.45,1.33,0,2.4,1.03,2.43,2.45,.05,2,.04,3.99,0,5.99-.03,1.41-1.11,2.45-2.44,2.44-1.34,0-2.36-1.03-2.45-2.44,0-.08,0-.16,0-.24,0-.92,0-1.84,0-2.76,0,0,0,0,0,0Z"/>
    </g>
  </g>
</svg>