<?xml version="1.0" encoding="UTF-8"?>
<svg id="Camada_2" data-name="Camada 2" xmlns="http://www.w3.org/2000/svg" viewBox="0 0 942.35 620.66">
  <defs>
    <style>
      .cls-1 {
        fill: #040404;
      }
    </style>
  </defs>
  <g id="Camada_1-2" data-name="Camada 1">
    <g>
      <path class="cls-1" d="M470.69,620.29c-140.09,0-280.18-.49-420.26,.37C18.03,620.85-.18,599.63,0,569.78c.76-123.38,.73-246.77,.02-370.14-.17-29.09,17.98-50.49,49.98-50.26,126.04,.88,252.09,.3,378.14,.51,7.13,.01,11.62-.52,12.71-9.02,1.02-7.96,6.27-14.31,13.25-17.96,5.93-3.1,6.11-6.98,4.48-12.18-2.79-8.89-8.81-14.86-17.18-18.44-9.3-3.98-19.15-5.71-29.22-6.27-11.68-.64-23.4-.83-35.02-2.02-26.75-2.76-41.01-16.86-43.87-43.55-1.03-9.61-.7-19.37-.86-29.06-.12-7.28,3.56-11.56,10.87-11.39,6.8,.16,9.96,4.44,10.19,11.17,.34,9.68,.51,19.39,1.4,29.03,1.25,13.57,6.99,19.35,20.37,22.12,15.83,3.27,32.11,.12,47.92,3.46,6.84,1.44,13.85,2.34,20.47,4.48,20.02,6.46,33.08,19.53,36.58,40.89,.82,5.02,2.04,8.82,7.54,11.41,7.84,3.69,13.08,10.81,14.38,19.45,1.05,6.97,4.27,7.88,10.52,7.88,126.71-.2,253.43-.15,380.15-.13,6,0,12.04-.28,17.92,1.38,19.27,5.46,31.48,21.86,31.5,43.7,.12,126.73,.15,253.45-.01,380.18-.04,28.23-18.12,45.24-47.26,45.25-141.43,.05-282.85,.02-424.28,.02Zm-.48-363.7c146.39,0,292.78-.12,439.17,.27,10.04,.03,12.11-2.74,11.56-12.05-.85-14.32-.22-28.73-.22-43.11,0-24.64-6.2-30.88-30.69-30.88-279.08,0-558.15,0-837.23,0-2.67,0-5.35-.1-8.02,.04-14.52,.76-22.68,9.05-22.82,23.62-.17,17.38,.5,34.79-.27,52.13-.38,8.53,2.17,10.19,10.35,10.17,146.06-.28,292.11-.2,438.17-.2Zm1.06,278.41c-57.46,0-114.92,.17-172.38-.2-8.06-.05-10.12,2.25-9.82,10.02,.6,15.34,.49,30.74,.03,46.09-.2,6.58,1.73,8.52,8.38,8.44,28.39-.35,56.79-.15,85.19-.15,86.86,0,173.72-.13,260.58,.2,8.53,.03,10.7-2.4,10.33-10.6-.67-14.67-.66-29.41,0-44.08,.36-7.96-2.05-9.95-9.92-9.91-57.46,.34-114.92,.18-172.38,.18Zm449.45-96.59c0-22.4-.2-44.81,.14-67.21,.09-6.01-1.29-8.02-7.68-7.91-23.4,.41-46.81,.33-70.21,.04-5.84-.07-8.19,1.11-8.15,7.64,.28,45.14,.26,90.28,.02,135.42-.03,5.87,1.85,7.21,7.4,7.15,23.73-.28,47.48-.41,71.21,.07,6.69,.13,7.48-2.28,7.4-7.99-.3-22.4-.12-44.8-.12-67.21Zm-79.31-160.23c-24.7,0-49.41,.18-74.11-.13-5.67-.07-7.32,1.49-7.2,7.17,.37,16.69,.37,33.39,0,50.07-.13,5.78,1.76,7.21,7.33,7.19,48.74-.2,97.48-.21,146.22,.01,5.78,.03,7.3-1.74,7.19-7.34-.34-16.69-.39-33.39,.02-50.07,.14-5.91-1.85-7.1-7.35-7.03-24.03,.29-48.07,.13-72.11,.13ZM101.21,427.64c24.7,0,49.41-.17,74.11,.13,5.64,.07,7.35-1.44,7.22-7.15-.37-16.69-.37-33.39,0-50.07,.13-5.76-1.71-7.23-7.31-7.21-48.74,.2-97.48,.21-146.22,0-5.76-.03-7.32,1.69-7.21,7.32,.35,16.69,.39,33.39-.02,50.07-.14,5.88,1.81,7.12,7.33,7.05,24.03-.29,48.07-.13,72.11-.13Zm-4.95,107.36c-22.38,0-44.77,.18-67.15-.13-5.51-.07-7.6,1.13-7.34,7.04,.48,11,.04,22.05,.16,33.07,.18,15.58,8.41,24.05,24.28,24.14,39.42,.21,78.84-.09,118.26,.22,6.68,.05,7.61-2.59,7.5-8.27-.31-16.03-.5-32.09,.07-48.1,.25-7.09-2.47-8.19-8.65-8.1-22.38,.31-44.76,.12-67.15,.12Zm-15.92-192.63c17.38,0,34.76-.2,52.13,.12,5.64,.1,7.54-1.56,7.42-7.32-.34-16.7-.29-33.42-.02-50.12,.08-5.1-1.28-7-6.68-6.97-35.09,.2-70.17,.2-105.26,0-4.86-.03-6.2,1.42-6.13,6.19,.26,17.04,.36,34.09-.04,51.13-.14,5.95,1.95,7.21,7.44,7.1,17.04-.32,34.08-.12,51.12-.12Zm-11.26,171.04c14.37,0,28.74-.2,43.1,.11,4.86,.1,6.19-1.38,6.12-6.16-.27-17.37-.28-34.75,0-52.13,.08-4.87-1.41-6.14-6.17-6.1-28.07,.21-56.13,.22-84.2,0-4.85-.04-6.19,1.37-6.11,6.16,.27,17.37,.28,34.75,0,52.13-.08,4.87,1.4,6.21,6.18,6.1,13.69-.3,27.4-.11,41.1-.11Zm696.06-85.77c14.02,0,28.05-.2,42.06,.1,5.27,.11,6.87-1.63,6.78-6.86-.29-16.69-.3-33.39,0-50.08,.1-5.56-1.41-7.54-7.25-7.48-27.37,.27-54.75,.3-82.13-.01-6.01-.07-7.22,2.14-7.13,7.54,.28,16.36,.37,32.73-.04,49.08-.15,6.01,1.23,8.13,7.64,7.88,13.33-.54,26.7-.16,40.06-.16Zm11.11,21.57c-10.66,0-21.33,.16-31.99-.08-4.32-.09-5.76,1.34-5.71,5.71,.2,17.66,.21,35.32,0,52.98-.05,4.41,1.46,5.71,5.74,5.67,21.32-.16,42.65-.16,63.97,0,4.31,.03,5.76-1.33,5.71-5.71-.2-17.66-.21-35.32,0-52.98,.05-4.41-1.46-5.76-5.74-5.67-10.66,.23-21.32,.07-31.99,.07Zm-63.99,85.77c-10.01,0-20.03,.33-30.01-.12-6.03-.27-8.13,1.39-7.96,7.74,.45,16.33,.45,32.69,0,49.02-.18,6.44,2.14,7.8,8.07,7.7,20-.32,40.02-.3,60.03,0,5.61,.08,7.54-1.53,7.42-7.3-.34-16.67-.38-33.36,.02-50.02,.14-6.04-2.17-7.29-7.56-7.1-9.99,.34-20.01,.1-30.01,.1Zm-481.52,0c-10.34,0-20.68,.22-31.01-.09-5.11-.15-7,1.34-6.9,6.72,.31,16.67,.41,33.36-.04,50.02-.17,6.46,2.18,7.78,8.08,7.69,20.01-.32,40.02-.3,60.03,0,5.63,.08,7.53-1.56,7.41-7.32-.34-16.67-.38-33.36,.02-50.02,.15-6.05-2.2-7.27-7.57-7.09-9.99,.34-20.01,.1-30.01,.1Zm282.72-85.76c-8.34,0-16.69,.29-25-.11-5.29-.25-6.81,1.52-6.72,6.77,.31,17,.22,34.01,.05,51.02-.04,4.32,.53,6.71,5.81,6.62,17.67-.29,35.34-.25,53.01-.01,4.5,.06,5.55-1.55,5.51-5.75-.19-17.67-.21-35.35,.01-53.02,.06-4.41-1.34-5.74-5.66-5.6-8.99,.28-18,.09-27.01,.09Zm-105.67-85.77c-8.67,0-17.35,.27-26-.1-5.12-.22-6.99,1.16-6.89,6.6,.33,17,.29,34.01,.01,51.02-.08,5.03,1.07,6.92,6.52,6.81,17-.35,34.01-.41,51.01,.02,6.1,.16,6.96-2.25,6.87-7.48-.28-16.33-.49-32.69,.08-49.01,.25-7.08-2.51-8.31-8.6-7.96-7.64,.44-15.33,.11-23,.11Zm192.58,149.96c8.35,0,16.73-.37,25.05,.13,5.58,.34,6.56-1.84,6.49-6.81-.27-17.04-.35-34.08,.04-51.11,.13-5.55-1.85-6.56-6.82-6.48-17.03,.26-34.08,.35-51.11-.04-5.55-.13-6.56,1.85-6.48,6.82,.26,17.04,.35,34.08-.04,51.11-.13,5.55,1.84,6.68,6.83,6.48,8.67-.35,17.37-.1,26.05-.1Zm84.63,0c8.67,0,17.35-.29,26,.11,5.33,.25,6.79-1.58,6.69-6.79-.3-17-.33-34.02,.01-51.01,.11-5.47-1.85-6.67-6.89-6.59-17,.26-34.01,.2-51.01,.03-4.28-.04-6.63,.43-6.53,5.76,.33,17.67,.26,35.35,.03,53.02-.06,4.44,1.4,5.72,5.69,5.58,8.66-.28,17.34-.08,26-.08Zm-406.84-235.48c-9.92,1.38-24-4.47-29.93,2.3-5.18,5.92-1.77,19.67-1.5,29.95,.28,10.52-4.65,24.59,2.08,30.53,5.88,5.19,19.64,1.61,29.92,1.61,10.28,0,24.05,3.58,29.92-1.61,6.72-5.94,1.8-20.01,2.07-30.53,.27-10.27,3.68-24.09-1.51-29.92-5.91-6.64-19.99-1.2-31.04-2.32Zm225.27,32.73c0,8.67,.17,17.34-.07,26.01-.12,4.25,1.2,5.82,5.64,5.77,17.67-.21,35.34-.21,53.01,0,4.41,.05,5.72-1.46,5.67-5.74-.18-17.67-.2-35.35,.02-53.02,.05-4.39-1.34-5.65-5.66-5.6-17.67,.21-35.34,.21-53.01,0-4.28-.05-5.84,1.14-5.69,5.57,.3,8.99,.09,18,.09,27.01Zm-43.26,171.65c.2,0,.41,0,.61,0,0-9-.25-18.02,.1-27.01,.19-4.89-1.53-6.25-6.27-6.18-17.34,.24-34.68,.27-52.01-.02-4.91-.08-6.18,1.42-6.11,6.2,.28,17.34,.28,34.68,0,52.02-.08,4.8,1.2,6.4,6.11,6.19,8.99-.38,18.01,.16,27-.18,10.19-.39,23.84,4.49,29.54-2.07,4.92-5.67,1.02-19,1.02-28.95Zm235.22-85.89c0-10.62,4.18-24.99-1.1-30.87-6.09-6.79-20.68-1.75-31.56-2.01-9.92-.23-23.35-3.42-28.88,1.64-6.37,5.83-1.74,19.43-1.93,29.64-.19,10.6-3.72,25,1.67,30.81,6.14,6.61,20.66,1.67,31.53,1.92,9.94,.23,23.39,3.6,28.94-1.43,6.44-5.83,1.06-19.48,1.32-29.69Zm-523.04,52.79c-9,0-18.01,.2-27.01-.09-4.36-.14-5.69,1.26-5.63,5.63,.22,17.67,.21,35.35,0,53.02-.05,4.24,1.08,5.78,5.54,5.72,17.67-.23,35.34-.19,53.01-.02,4.21,.04,5.85-1.14,5.8-5.61-.21-17.67-.21-35.35,0-53.02,.05-4.38-1.39-5.83-5.71-5.71-8.66,.25-17.34,.08-26.01,.07Zm85.21,64.19c8.34,0,16.68-.27,25,.1,5.04,.23,6.92-1.06,6.81-6.51-.35-17-.29-34.01-.03-51.02,.08-4.92-.84-7.02-6.43-6.9-17,.37-34.01,.28-51.01,.04-4.93-.07-7.09,.92-6.97,6.51,.35,17,.31,34.01,.02,51.02-.09,5.1,1.16,7.14,6.61,6.88,8.65-.42,17.33-.11,26-.11Zm85.35-.45c10.52-.73,24.65,5.19,30.6-1.62,5.17-5.92,1.66-19.72,1.4-30.02-.26-10.55,4.59-24.68-2.01-30.6-5.79-5.19-19.68-1.67-29.99-1.41-10.55,.26-24.68-4.59-30.59,2.01-5.19,5.79-1.67,19.69-1.41,29.99,.26,10.55-4.59,24.71,2.01,30.58,5.76,5.12,19.67,1.07,29.98,1.07Zm182.08-117.46c0-8.35-.21-16.7,.08-25.04,.17-4.9-.95-7.24-6.55-7.14-17.02,.31-34.05,.3-51.07,0-5.35-.1-6.84,1.74-6.76,6.88,.26,17.02,.21,34.05,.02,51.08-.05,4.43,.71,6.58,5.9,6.49,17.35-.3,34.72-.32,52.07,0,5.75,.11,6.56-2.45,6.39-7.23-.28-8.34-.08-16.69-.08-25.04Zm-171.54,.57c0-8.68-.27-17.37,.1-26.04,.23-5.38-1.81-6.78-6.93-6.7-17.02,.27-34.05,.23-51.07,.02-4.72-.06-6.45,1.43-6.39,6.27,.22,17.36,.25,34.72-.02,52.08-.08,5.16,2.17,6.05,6.58,6.01,17.36-.16,34.72-.18,52.07,.02,4.3,.05,5.9-1.17,5.74-5.63-.3-8.67-.09-17.36-.09-26.04Zm267.33-117.91c-8.68,0-17.37,.21-26.03-.09-4.43-.15-5.7,1.39-5.65,5.72,.21,17.36,.18,34.72,.02,52.08-.04,4.4,.8,6.69,5.99,6.61,17.35-.27,34.72-.23,52.07-.02,4.82,.06,6.35-1.63,6.29-6.37-.21-17.36-.25-34.72,.02-52.08,.08-5.27-2.36-6.01-6.68-5.91-8.67,.19-17.36,.06-26.04,.06Zm88.25,0c-10.41,0-19.1,.24-27.76-.09-5.09-.19-7.03,1.29-6.93,6.7,.31,17.02,.22,34.05,.04,51.08-.05,4.48,.94,6.69,6.04,6.62,17.36-.24,34.72-.25,52.07,0,4.92,.07,6.38-1.67,6.24-6.36-.27-9.01,.01-18.03-.1-27.04-.12-9.95,3.38-23.33-1.67-28.93-5.85-6.48-19.47-1.06-27.94-1.98Zm-440.84,117.7c0-8.35-.29-16.71,.1-25.03,.26-5.53-1.33-7.64-7.22-7.52-16.68,.36-33.38,.27-50.07,.04-4.88-.07-7.24,.87-7.14,6.49,.31,17.35,.22,34.72,.04,52.08-.04,4.19,1,5.88,5.54,5.83,17.69-.23,35.38-.18,53.08-.03,4.32,.04,5.87-1.48,5.75-5.81-.25-8.67-.07-17.36-.07-26.04Zm310.43,31.79c8.68,0,17.37-.21,26.04,.09,4.39,.15,5.74-1.3,5.69-5.68-.21-17.36-.27-34.72,.02-52.08,.09-5.44-1.94-6.72-7-6.64-16.69,.26-33.38,.31-50.07-.02-5.7-.11-7.48,1.67-7.37,7.37,.33,16.69,.39,33.39-.02,50.07-.15,6.2,2.46,7.18,7.68,6.98,8.33-.32,16.69-.08,25.03-.09Zm-127.37-149.49c-9.01,0-18.03,.14-27.04-.06-4.33-.09-6.75,.67-6.67,5.92,.27,17.36,.23,34.72,.02,52.08-.06,4.75,1.5,6.42,6.3,6.36,17.36-.21,34.72-.25,52.07,.02,5.2,.08,6.02-2.23,5.98-6.62-.15-17.36-.19-34.72,.02-52.08,.05-4.34-1.24-5.87-5.66-5.71-8.33,.3-16.69,.09-25.03,.09Zm-256.81,0c-9.01,0-18.03,.14-27.04-.06-4.34-.09-6.74,.68-6.66,5.93,.27,17.36,.23,34.72,.02,52.08-.06,4.76,1.51,6.41,6.31,6.35,17.36-.21,34.72-.25,52.07,.02,5.21,.08,6.01-2.25,5.97-6.62-.15-17.36-.19-34.72,.02-52.08,.05-4.35-1.26-5.86-5.67-5.7-8.33,.3-16.69,.09-25.03,.09Zm169.56,64.22c8.01,0,16.04-.34,24.03,.11,6.17,.35,8.96-.99,8.73-8.06-.53-16.34-.41-32.72-.04-49.07,.13-5.79-1.71-7.43-7.37-7.31-16.68,.33-33.38,.26-50.07,.03-4.82-.07-7.16,.68-7.04,6.39,.37,17.02,.39,34.06,0,51.07-.14,6.19,2.49,7.16,7.72,6.94,8-.34,16.02-.09,24.03-.09Zm406.75,223.31c0,8.68,.27,17.37-.1,26.04-.23,5.42,1.12,7.74,7.12,7.61,16.68-.37,33.38-.38,50.07,0,5.91,.14,7.33-1.92,7.23-7.45-.3-16.69-.27-33.39-.01-50.07,.08-4.94-.88-7.07-6.48-6.95-17.02,.36-34.05,.29-51.07,.03-5.15-.08-7.14,1.4-6.87,6.77,.4,7.99,.1,16.02,.1,24.03Zm85.78,.86c0,9,.17,18-.07,26.99-.12,4.28,1.25,5.83,5.67,5.74,12.32-.27,24.67,.32,36.97-.28,13.39-.65,21.28-9.2,21.56-22.62,.24-11.66-.08-23.33,.13-34.98,.08-4.3-.45-6.61-5.76-6.51-17.65,.33-35.31,.25-52.97,.03-4.38-.06-5.76,1.31-5.61,5.65,.29,8.65,.09,17.32,.09,25.99ZM471.67,150.46c2.61-2.96,8.83,2.58,9.34-3.53,.44-5.25-4.74-7.89-9.69-7.9-4.94,0-10.13,2.63-9.7,7.87,.49,5.93,6.53,1.23,10.05,3.56Z"/>
      <path class="cls-1" d="M123.69,224.5c-15.34,0-30.68-.14-46.01,.06-7.56,.1-12.69-2.96-12.84-10.64-.15-7.79,5.16-10.99,12.55-10.99,30.67-.01,61.35-.03,92.02,0,7.2,0,12.84,2.7,12.83,10.7-.02,8.53-5.8,11.01-13.54,10.92-15-.17-30.01-.05-45.01-.05Z"/>
      <path class="cls-1" d="M744,224.45c-8.65-.09-15.78-7.26-15.83-15.92-.05-9.07,7.61-16.47,16.65-16.08,8.65,.37,15.57,7.77,15.34,16.4-.23,8.63-7.55,15.69-16.16,15.6Z"/>
      <path class="cls-1" d="M797.58,192.43c8.49-.04,15.95,7.2,16.16,15.67,.21,8.82-7.62,16.59-16.47,16.37-8.7-.22-15.45-7.32-15.37-16.18,.08-8.9,6.92-15.81,15.69-15.85Z"/>
      <path class="cls-1" d="M866.93,208.87c-.2,8.86-7.21,15.7-15.96,15.59-8.52-.11-15.84-7.46-15.88-15.95-.04-8.89,7.83-16.45,16.74-16.07,8.75,.37,15.31,7.51,15.11,16.43Z"/>
    </g>
  </g>
</svg>